<svg width="72" height="72" viewBox="0 0 72 72" fill="none" xmlns="http://www.w3.org/2000/svg">
<g filter="url(#filter0_d_435_11475)">
<circle cx="36" cy="36" r="32" fill="white"/>
</g>
<g clip-path="url(#clip0_435_11475)">
<path d="M51.3193 41.5565C50.7072 41.8698 49.9539 41.6302 49.6379 41.015H49.6379C47.7213 37.2799 42.6325 31.9253 35.9999 31.9253C30.0517 31.9253 24.7656 36.331 22.362 41.0151C22.0458 41.628 21.2928 41.8699 20.6794 41.5548C20.066 41.2397 19.8233 40.4882 20.1374 39.8743C22.8991 34.4818 28.9721 29.4253 35.9999 29.4253C44.0149 29.4253 49.7553 35.7598 51.8624 39.8743C52.177 40.4888 51.9338 41.242 51.3193 41.5565ZM20.4857 28.1315L23.2697 30.643C23.7853 31.1082 24.5754 31.0616 25.0351 30.5521C25.4975 30.0395 25.4569 29.2491 24.9443 28.7867L22.1603 26.2752C21.6478 25.8129 20.8574 25.8534 20.3948 26.3661C19.9324 26.8787 19.9731 27.6691 20.4857 28.1315ZM48.7301 30.643L51.5141 28.1315C52.0267 27.6691 52.0673 26.8787 51.6049 26.3661C51.1425 25.8535 50.3521 25.8127 49.8395 26.2752L47.0556 28.7867C46.5429 29.2491 46.5023 30.0395 46.9647 30.5521C47.4249 31.0622 48.2151 31.1076 48.7301 30.643ZM35.9999 25.6596C36.6903 25.6596 37.2499 25.0999 37.2499 24.4096V20.6562C37.2499 19.9659 36.6903 19.4062 35.9999 19.4062C35.3095 19.4062 34.7499 19.9659 34.7499 20.6562V24.4096C34.7499 25.1 35.3096 25.6596 35.9999 25.6596ZM42.1405 40.4438C42.1405 43.8349 39.3858 46.5938 35.9999 46.5938C32.6141 46.5938 29.8594 43.8349 29.8594 40.4438C29.8594 37.0528 32.6141 34.2939 35.9999 34.2939C39.3858 34.2939 42.1405 37.0528 42.1405 40.4438ZM39.6406 40.4438C39.6406 38.4313 38.0074 36.7939 36 36.7939C33.9926 36.7939 32.3594 38.4313 32.3594 40.4438C32.3594 42.4564 33.9925 44.0938 35.9999 44.0938C38.0074 44.0938 39.6406 42.4564 39.6406 40.4438Z" fill="#FF6800"/>
</g>
<defs>
<filter id="filter0_d_435_11475" x="0" y="0" width="72" height="72" filterUnits="userSpaceOnUse" color-interpolation-filters="sRGB">
<feFlood flood-opacity="0" result="BackgroundImageFix"/>
<feColorMatrix in="SourceAlpha" type="matrix" values="0 0 0 0 0 0 0 0 0 0 0 0 0 0 0 0 0 0 127 0" result="hardAlpha"/>
<feOffset/>
<feGaussianBlur stdDeviation="2"/>
<feComposite in2="hardAlpha" operator="out"/>
<feColorMatrix type="matrix" values="0 0 0 0 0 0 0 0 0 0 0 0 0 0 0 0 0 0 0.25 0"/>
<feBlend mode="normal" in2="BackgroundImageFix" result="effect1_dropShadow_435_11475"/>
<feBlend mode="normal" in="SourceGraphic" in2="effect1_dropShadow_435_11475" result="shape"/>
</filter>
<clipPath id="clip0_435_11475">
<rect width="32" height="32" fill="white" transform="translate(20 17)"/>
</clipPath>
</defs>
</svg>
