<svg width="156" height="56" viewBox="0 0 156 56" fill="none" xmlns="http://www.w3.org/2000/svg">
<path fill-rule="evenodd" clip-rule="evenodd" d="M20.2701 17.7732H25.4709C28.3768 17.7732 30.8356 18.1816 32.8474 18.9984C37.8209 20.9996 40.3076 26.0638 40.3076 34.1911C40.3076 45.9532 35.3621 51.8342 25.4709 51.8342H11.221V17.7732H13.4218L12.4398 13.6074H6.7666C5.66203 13.6074 4.7666 14.5028 4.7666 15.6074V54C4.7666 55.1046 5.66203 56 6.7666 56H25.4709C29.6062 56 33.1268 55.4486 36.0327 54.3459C43.2973 51.5688 46.9297 44.8505 46.9297 34.1911C46.9297 29.086 46.0356 24.9611 44.2473 21.8164C41.1738 16.3437 34.915 13.6074 25.4709 13.6074H19.6593L20.2701 17.7732Z" fill="#392F76"/>
<path d="M23.6357 33.427C18.8477 34.9738 17.2234 35.6203 14.1045 33.5964V47.1579H25.3999C28.3501 47.1579 30.207 46.8883 31.469 46.1629C33.4244 45.0389 35.1416 42.1676 36.0209 39.8613C36.8638 37.6502 36.9481 36.4451 37.1167 34.5288C30.4191 37.4936 28.3583 31.9013 23.6357 33.427Z" fill="#FF6800"/>
<path fill-rule="evenodd" clip-rule="evenodd" d="M11.4325 7.14926L22.3862 46.1999C22.3862 46.1999 23.4818 47.2446 24.1692 47.1521C24.8128 47.0655 25.2392 45.6956 25.2392 45.6956L16.0544 0.968831C15.8811 0.124789 14.8803 -0.274594 14.1482 0.208174L10.599 2.54885L0 9.25549L2.40693 12.8602L11.4325 7.14926Z" fill="#392F76"/>
<path d="M23.6357 35.4421C18.8477 37.0109 17.2234 35.9474 14.1045 33.8947V49.3684H25.3999C28.3501 49.3684 30.207 49.095 31.469 48.3593C33.4244 47.2193 35.1416 44.3071 36.0209 41.968C36.8638 39.7254 36.9481 36.7857 37.1167 34.8421C30.4191 37.8491 28.3583 33.8947 23.6357 35.4421Z" fill="#FF8700"/>
<path d="M69.1475 19.5245H71.9539L78.3054 31.9509H78.4408L84.6692 19.5245H87.4264V35.7265H84.6692V22.4447H84.583L77.8869 35.7265H77.3207L70.5507 22.5547H70.3661V35.7265H69.1475V19.5245Z" fill="#392F76"/>
<path d="M91.8699 19.5245H97.0397C97.8932 19.5245 98.6932 19.6263 99.44 19.8299C100.187 20.0336 100.835 20.335 101.385 20.7341C101.943 21.1251 102.378 21.6098 102.69 22.1881C103.01 22.7583 103.17 23.4141 103.17 24.1554C103.17 24.8885 103.014 25.5279 102.702 26.0737C102.398 26.6195 101.992 27.0716 101.483 27.43C100.983 27.7884 100.412 28.0572 99.7723 28.2364C99.1323 28.4075 98.4799 28.493 97.8152 28.493C97.528 28.493 97.2285 28.4889 96.9166 28.4808C96.6048 28.4645 96.3053 28.4441 96.0181 28.4197C95.7309 28.3953 95.4642 28.3667 95.218 28.3342C94.9718 28.3016 94.7708 28.269 94.6149 28.2364V35.7265H91.8699V19.5245ZM94.6149 27.32C94.9267 27.4259 95.259 27.5155 95.6119 27.5888C95.9647 27.654 96.3258 27.6866 96.6951 27.6866C97.2859 27.6866 97.8029 27.601 98.246 27.43C98.6891 27.2508 99.0584 27.0105 99.3538 26.7091C99.6493 26.3995 99.8667 26.0411 100.006 25.6338C100.154 25.2184 100.228 24.7785 100.228 24.3142C100.228 23.7684 100.133 23.2756 99.9447 22.8357C99.7559 22.3959 99.4933 22.0212 99.1569 21.7116C98.8286 21.3939 98.4389 21.1495 97.9875 20.9785C97.5444 20.8074 97.0685 20.7219 96.5597 20.7219H94.6149V27.32Z" fill="#392F76"/>
<path d="M114.716 36.1053C113.452 36.1053 112.27 35.8813 111.171 35.4332C110.079 34.9852 109.127 34.3743 108.315 33.6004C107.511 32.8184 106.875 31.9102 106.407 30.8757C105.947 29.833 105.718 28.7211 105.718 27.5399C105.718 26.7661 105.82 26.0207 106.025 25.3039C106.239 24.5871 106.538 23.9191 106.924 23.3C107.31 22.681 107.773 22.1189 108.315 21.6139C108.865 21.1007 109.472 20.6649 110.137 20.3065C110.801 19.9399 111.519 19.6589 112.291 19.4634C113.07 19.2597 113.878 19.1579 114.716 19.1579C115.561 19.1579 116.369 19.2597 117.14 19.4634C117.912 19.6589 118.63 19.9399 119.294 20.3065C119.967 20.6649 120.575 21.1007 121.116 21.6139C121.658 22.1189 122.121 22.681 122.507 23.3C122.901 23.9191 123.201 24.5871 123.406 25.3039C123.619 26.0207 123.726 26.7661 123.726 27.5399C123.726 28.3301 123.619 29.0876 123.406 29.8126C123.201 30.5376 122.901 31.2178 122.507 31.8532C122.121 32.4885 121.658 33.0669 121.116 33.5882C120.575 34.1095 119.967 34.5576 119.294 34.9323C118.63 35.307 117.912 35.5962 117.14 35.7998C116.369 36.0034 115.561 36.1053 114.716 36.1053ZM114.716 35.2988C115.651 35.2988 116.476 35.1074 117.19 34.7246C117.912 34.3336 118.519 33.7919 119.011 33.0995C119.504 32.4071 119.873 31.5884 120.119 30.6435C120.374 29.6986 120.501 28.6641 120.501 27.5399C120.501 26.424 120.374 25.4017 120.119 24.473C119.873 23.5444 119.504 22.7461 119.011 22.0782C118.519 21.4021 117.912 20.8807 117.19 20.5142C116.476 20.1395 115.651 19.9521 114.716 19.9521C113.764 19.9521 112.927 20.1395 112.204 20.5142C111.491 20.8807 110.887 21.4021 110.395 22.0782C109.911 22.7461 109.546 23.5444 109.3 24.473C109.053 25.4017 108.93 26.424 108.93 27.5399C108.93 28.6641 109.053 29.6986 109.3 30.6435C109.546 31.5884 109.911 32.4071 110.395 33.0995C110.887 33.7919 111.491 34.3336 112.204 34.7246C112.927 35.1074 113.764 35.2988 114.716 35.2988Z" fill="#392F76"/>
<path d="M127.418 19.5245H133.081C134.057 19.5245 134.915 19.6304 135.653 19.8421C136.392 20.0458 137.007 20.335 137.5 20.7097C137.992 21.0844 138.361 21.5324 138.607 22.0537C138.862 22.5669 138.989 23.129 138.989 23.7399C138.989 24.245 138.89 24.7174 138.694 25.1573C138.505 25.5972 138.234 25.9963 137.881 26.3547C137.536 26.705 137.118 27.0105 136.626 27.2711C136.133 27.5237 135.592 27.7232 135.001 27.8698L140.946 35.7265H137.758L132.084 28.1142H130.163V35.7265H127.418V19.5245ZM130.163 27.2956H131.751C132.367 27.2956 132.933 27.2141 133.45 27.0512C133.975 26.8883 134.426 26.6602 134.804 26.3669C135.19 26.0655 135.489 25.7031 135.702 25.2795C135.916 24.8559 136.022 24.3794 136.022 23.8499C136.022 23.3611 135.936 22.9131 135.764 22.5058C135.6 22.0985 135.362 21.7523 135.05 21.4672C134.746 21.174 134.381 20.9459 133.955 20.783C133.536 20.6201 133.076 20.5386 132.576 20.5386H130.163V27.2956Z" fill="#392F76"/>
<path d="M156 19.5245V20.5753H150.092V35.7265H147.347V20.5753H141.438V19.5245H156Z" fill="#392F76"/>
<path d="M61.7241 39.4192H67.1484C68.8174 39.4192 70.2533 39.574 71.4559 39.8835C72.6586 40.193 73.6608 40.6899 74.4626 41.3742C75.3789 42.1562 76.0662 43.0522 76.5243 44.0623C76.9907 45.0724 77.2239 46.1761 77.2239 47.3736C77.2239 48.514 77.0152 49.5852 76.598 50.5871C76.1889 51.589 75.5835 52.4647 74.7817 53.2141C73.9881 53.9554 73.0022 54.5419 71.8241 54.9736C70.6542 55.4054 69.3124 55.6212 67.7988 55.6212H61.7241V39.4192ZM64.4608 54.436H67.3693C68.2856 54.436 69.1488 54.2853 69.9587 53.9839C70.7687 53.6825 71.4723 53.2345 72.0696 52.6398C72.675 52.0452 73.1495 51.3162 73.4931 50.4527C73.8449 49.5811 74.0208 48.5751 74.0208 47.4347C74.0208 46.4327 73.8572 45.5163 73.5299 44.6855C73.2027 43.8464 72.7445 43.1255 72.1555 42.5227C71.5664 41.92 70.8628 41.4516 70.0446 41.1176C69.2347 40.7836 68.347 40.6166 67.3816 40.6166H64.4608V54.436Z" fill="#392F76"/>
<path d="M81.9231 39.4192H87.5683C88.5419 39.4192 89.3969 39.5251 90.1332 39.7369C90.8695 39.9405 91.4831 40.2297 91.974 40.6044C92.4649 40.9791 92.8331 41.4271 93.0785 41.9485C93.3321 42.4617 93.459 43.0237 93.459 43.6346C93.459 44.1397 93.3608 44.6121 93.1644 45.052C92.9762 45.4919 92.7063 45.891 92.3545 46.2495C92.0108 46.5997 91.5936 46.9052 91.1027 47.1659C90.6118 47.4184 90.0718 47.618 89.4828 47.7646L95.4102 55.6212H92.2317L86.5743 48.009H84.6598V55.6212H81.9231V39.4192ZM84.6598 47.1903H86.2429C86.8565 47.1903 87.421 47.1088 87.9365 46.9459C88.4601 46.783 88.9101 46.5549 89.2864 46.2617C89.6709 45.9603 89.9696 45.5978 90.1823 45.1742C90.395 44.7506 90.5014 44.2741 90.5014 43.7446C90.5014 43.2559 90.4155 42.8078 90.2436 42.4006C90.08 41.9933 89.8428 41.6471 89.5319 41.362C89.2291 41.0687 88.8651 40.8406 88.4396 40.6777C88.0224 40.5148 87.5642 40.4333 87.0652 40.4333H84.6598V47.1903Z" fill="#392F76"/>
<path d="M98.6368 39.4192H101.374V55.6212H98.6368V39.4192Z" fill="#392F76"/>
<path d="M106.809 39.4192H108.343L119.008 51.2714H119.13V39.4192H120.333V56H119.695L108.147 42.8282H108.049V55.6212H106.809V39.4192Z" fill="#392F76"/>
<path d="M125.756 39.4192H128.493V46.6038L137.059 39.4192H138.838L130.714 46.2372L141.023 55.6212H137.538L128.493 47.398V55.6212H125.756V39.4192Z" fill="#392F76"/>
<path d="M149.612 54.9736C150.013 54.9736 150.41 54.9207 150.803 54.8148C151.196 54.7007 151.547 54.5378 151.858 54.326C152.169 54.1061 152.419 53.8414 152.607 53.5318C152.795 53.2141 152.889 52.8476 152.889 52.4321C152.889 51.9352 152.758 51.4954 152.496 51.1125C152.243 50.7215 151.907 50.3672 151.49 50.0495C151.073 49.7236 150.594 49.4182 150.054 49.1331C149.522 48.848 148.978 48.5629 148.422 48.2778C147.866 47.9927 147.318 47.6953 146.778 47.3858C146.246 47.0681 145.771 46.7178 145.354 46.335C144.937 45.944 144.597 45.5123 144.335 45.0398C144.082 44.5592 143.955 44.0094 143.955 43.3903C143.955 42.7712 144.07 42.1969 144.299 41.6674C144.536 41.138 144.879 40.6818 145.329 40.2989C145.779 39.9079 146.332 39.6025 146.986 39.3825C147.649 39.1626 148.406 39.0526 149.257 39.0526C150.026 39.0526 150.713 39.1341 151.318 39.297C151.924 39.4599 152.455 39.7002 152.914 40.0179C153.372 40.3356 153.76 40.7266 154.08 41.1909C154.399 41.6552 154.656 42.1928 154.853 42.8038L153.454 43.4391C153.29 42.9423 153.081 42.4902 152.828 42.0829C152.574 41.6674 152.271 41.3131 151.92 41.0198C151.568 40.7266 151.159 40.5026 150.692 40.3478C150.234 40.1849 149.715 40.1034 149.134 40.1034C148.618 40.1034 148.168 40.1768 147.784 40.3234C147.399 40.4619 147.076 40.6492 146.814 40.8854C146.561 41.1135 146.368 41.3742 146.238 41.6674C146.115 41.9525 146.054 42.2458 146.054 42.5472C146.054 42.9708 146.184 43.3618 146.446 43.7202C146.708 44.0704 147.056 44.4044 147.489 44.7221C147.923 45.0317 148.414 45.3331 148.962 45.6263C149.518 45.9195 150.083 46.2169 150.656 46.5183C151.228 46.8197 151.789 47.1333 152.337 47.4591C152.893 47.7849 153.388 48.1434 153.822 48.5344C154.255 48.9172 154.603 49.3408 154.865 49.8051C155.127 50.2613 155.258 50.7745 155.258 51.3447C155.258 51.9882 155.135 52.595 154.889 53.1653C154.644 53.7273 154.276 54.2201 153.785 54.6437C153.294 55.0592 152.685 55.3891 151.956 55.6334C151.228 55.8778 150.381 56 149.416 56C148.631 56 147.931 55.9145 147.318 55.7434C146.704 55.5723 146.16 55.3239 145.685 54.9981C145.219 54.6722 144.818 54.2772 144.483 53.8128C144.147 53.3404 143.873 52.8028 143.66 52.2L145.121 51.6013C145.293 52.1307 145.522 52.6032 145.808 53.0186C146.103 53.4341 146.442 53.7884 146.827 54.0817C147.211 54.3668 147.637 54.5867 148.103 54.7415C148.577 54.8962 149.081 54.9736 149.612 54.9736Z" fill="#392F76"/>
<path fill-rule="evenodd" clip-rule="evenodd" d="M59.8075 18.1427L54.0416 20.8137L53.0794 18.7672L60.962 15.1156C61.4432 14.8806 62.0156 15.1654 62.1173 15.6904L65.9403 35.4229L63.0592 35.4229L59.8075 18.1427Z" fill="#392F76"/>
</svg>
