<svg width="32" height="32" viewBox="0 0 32 32" fill="none" xmlns="http://www.w3.org/2000/svg">
<path d="M11.8516 28.4444C12.9561 28.4444 13.8516 27.549 13.8516 26.4444C13.8516 25.3399 12.9561 24.4444 11.8516 24.4444C10.747 24.4444 9.85156 25.3399 9.85156 26.4444C9.85156 27.549 10.747 28.4444 11.8516 28.4444Z" fill="white"/>
<path d="M24 28.4444C25.1046 28.4444 26 27.549 26 26.4444C26 25.3399 25.1046 24.4444 24 24.4444C22.8954 24.4444 22 25.3399 22 26.4444C22 27.549 22.8954 28.4444 24 28.4444Z" fill="white"/>
<path d="M29.4023 4.77333C29.3196 4.67136 29.2153 4.58899 29.0969 4.53212C28.9786 4.47525 28.8491 4.44531 28.7178 4.44444H10.2112L10.7889 6.22222H27.5534L25.18 16.8889H11.8467L7.78449 4.02666C7.74055 3.89018 7.66424 3.76636 7.56209 3.66575C7.45993 3.56514 7.33496 3.49074 7.19782 3.44889L3.55338 2.32889C3.44131 2.29445 3.32357 2.28242 3.20686 2.29349C3.09015 2.30456 2.97676 2.33851 2.87317 2.3934C2.66397 2.50426 2.50737 2.69368 2.43782 2.92C2.36827 3.14632 2.39148 3.39099 2.50234 3.6002C2.61319 3.80941 2.80261 3.96601 3.02893 4.03555L6.22004 5.01333L10.3 17.9022L8.84226 19.0933L8.72671 19.2089C8.36612 19.6244 8.16173 20.1527 8.14875 20.7028C8.13577 21.2528 8.31501 21.7901 8.6556 22.2222C8.89787 22.5168 9.20574 22.7507 9.55457 22.905C9.90339 23.0594 10.2835 23.13 10.6645 23.1111H25.5C25.7358 23.1111 25.9619 23.0175 26.1286 22.8508C26.2953 22.6841 26.3889 22.458 26.3889 22.2222C26.3889 21.9865 26.2953 21.7604 26.1286 21.5937C25.9619 21.427 25.7358 21.3333 25.5 21.3333H10.5223C10.4199 21.3298 10.3202 21.3 10.2327 21.2467C10.1453 21.1934 10.073 21.1185 10.023 21.0291C9.97293 20.9398 9.94678 20.839 9.94704 20.7366C9.94731 20.6342 9.97398 20.5335 10.0245 20.4444L12.1667 18.6667H25.8912C26.0966 18.6717 26.2975 18.6053 26.4596 18.4789C26.6216 18.3525 26.7349 18.1738 26.78 17.9733L29.5978 5.52889C29.6249 5.39637 29.6213 5.25943 29.5874 5.1285C29.5535 4.99757 29.4902 4.87609 29.4023 4.77333Z" fill="white"/>
</svg>
