<svg width="193" height="193" viewBox="0 0 193 193" fill="none" xmlns="http://www.w3.org/2000/svg">
<path d="M95.1343 2.21519C95.6671 1.04239 97.3329 1.04239 97.8657 2.21519L104.771 17.4169C105.537 19.1015 107.803 19.3999 108.979 17.9708L119.584 5.0744C120.402 4.07945 122.011 4.5106 122.222 5.78133L124.958 22.2524C125.261 24.0777 127.373 24.9526 128.878 23.8763L142.46 14.1641C143.507 13.4148 144.95 14.2477 144.825 15.5298L143.205 32.1478C143.025 33.9893 144.839 35.3811 146.571 34.731L162.204 28.8649C163.41 28.4123 164.588 29.5902 164.135 30.7963L158.269 46.4286C157.619 48.161 159.011 49.9747 160.852 49.7951L177.47 48.1749C178.752 48.0499 179.585 49.4925 178.836 50.5403L169.124 64.1217C168.047 65.6268 168.922 67.739 170.748 68.0422L187.219 70.7781C188.489 70.9892 188.921 72.5983 187.926 73.4165L175.029 84.0214C173.6 85.1966 173.898 87.4632 175.583 88.2285L190.785 95.1343C191.958 95.6671 191.958 97.3329 190.785 97.8657L175.583 104.771C173.898 105.537 173.6 107.803 175.029 108.979L187.926 119.584C188.921 120.402 188.489 122.011 187.219 122.222L170.748 124.958C168.922 125.261 168.047 127.373 169.124 128.878L178.836 142.46C179.585 143.507 178.752 144.95 177.47 144.825L160.852 143.205C159.011 143.025 157.619 144.839 158.269 146.571L164.135 162.204C164.588 163.41 163.41 164.588 162.204 164.135L146.571 158.269C144.839 157.619 143.025 159.011 143.205 160.852L144.825 177.47C144.95 178.752 143.507 179.585 142.46 178.836L128.878 169.124C127.373 168.047 125.261 168.922 124.958 170.748L122.222 187.219C122.011 188.489 120.402 188.921 119.584 187.926L108.979 175.029C107.803 173.6 105.537 173.898 104.771 175.583L97.8657 190.785C97.3329 191.958 95.6671 191.958 95.1343 190.785L88.2285 175.583C87.4632 173.898 85.1966 173.6 84.0214 175.029L73.4165 187.926C72.5983 188.921 70.9892 188.489 70.7781 187.219L68.0422 170.748C67.739 168.922 65.6268 168.047 64.1217 169.124L50.5403 178.836C49.4925 179.585 48.0499 178.752 48.1749 177.47L49.7951 160.852C49.9747 159.011 48.161 157.619 46.4286 158.269L30.7963 164.135C29.5902 164.588 28.4123 163.41 28.8649 162.204L34.731 146.571C35.3811 144.839 33.9893 143.025 32.1478 143.205L15.5298 144.825C14.2477 144.95 13.4148 143.507 14.1641 142.46L23.8763 128.878C24.9526 127.373 24.0777 125.261 22.2524 124.958L5.78133 122.222C4.5106 122.011 4.07945 120.402 5.0744 119.584L17.9708 108.979C19.3999 107.803 19.1015 105.537 17.4169 104.771L2.21519 97.8657C1.04239 97.3329 1.04239 95.6671 2.21519 95.1343L17.4169 88.2285C19.1015 87.4632 19.3999 85.1966 17.9708 84.0214L5.0744 73.4165C4.07945 72.5983 4.5106 70.9892 5.78133 70.7781L22.2524 68.0422C24.0777 67.739 24.9526 65.6268 23.8763 64.1217L14.1641 50.5403C13.4148 49.4925 14.2477 48.0499 15.5298 48.1749L32.1478 49.7951C33.9893 49.9747 35.3811 48.161 34.731 46.4286L28.8649 30.7963C28.4123 29.5902 29.5902 28.4123 30.7963 28.8649L46.4286 34.731C48.161 35.3811 49.9747 33.9893 49.7951 32.1478L48.1749 15.5298C48.0499 14.2477 49.4925 13.4148 50.5403 14.1641L64.1217 23.8763C65.6268 24.9526 67.739 24.0777 68.0422 22.2524L70.7781 5.78133C70.9892 4.5106 72.5983 4.07945 73.4165 5.0744L84.0214 17.9708C85.1966 19.3999 87.4632 19.1015 88.2285 17.4169L95.1343 2.21519Z" stroke="white"/>
</svg>
