<svg width="26" height="20" viewBox="0 0 26 20" fill="none" xmlns="http://www.w3.org/2000/svg">
<path d="M23.8954 0.340831L23.4818 0.490831L1.0318 8.57947C0.87271 8.62866 0.734437 8.72926 0.638657 8.86548C0.542877 9.00171 0.495004 9.16586 0.502541 9.33221C0.510079 9.49857 0.572602 9.65772 0.68031 9.78473C0.788017 9.91173 0.934822 9.99941 1.09771 10.034L6.90908 11.6249L7.99317 14.8067L9.07726 17.9886C9.13953 18.1445 9.23894 18.283 9.36685 18.3918C9.49477 18.5006 9.64731 18.5766 9.81125 18.6131C9.97518 18.6496 10.1456 18.6455 10.3076 18.6013C10.4696 18.557 10.6183 18.4738 10.7409 18.359L13.7432 15.5226L19.6386 19.5204C20.3591 20.0113 21.3863 19.6476 21.5704 18.8386L25.475 1.58629C25.6659 0.73174 24.7659 0.0294671 23.8954 0.340831ZM21.0295 4.17038L10.8863 12.4613L10.4091 12.8522C10.3042 12.9353 10.2358 13.0559 10.2182 13.1886L10.1113 14.0704L9.81817 16.5476C9.82058 16.5778 9.81092 16.6076 9.79131 16.6307C9.7717 16.6537 9.74376 16.668 9.71362 16.6704C9.68348 16.6728 9.65362 16.6631 9.6306 16.6435C9.60759 16.6239 9.5933 16.596 9.59089 16.5658L8.76589 14.0908L7.91362 11.5567C7.87757 11.4428 7.88236 11.3199 7.92716 11.2092C7.97196 11.0984 8.05397 11.0067 8.15907 10.9499L18.7136 4.89992L20.7 3.76356C20.9886 3.59538 21.2841 3.96128 21.0295 4.17038Z" fill="white"/>
</svg>
